<svg width="26" height="26" viewBox="0 0 26 26" fill="none" xmlns="http://www.w3.org/2000/svg">
<g clip-path="url(#clip0_76_440)">
<path d="M13.542 0.578613V7.04034C15.1891 6.96998 16.7758 6.58263 18.2373 5.90481C17.1641 2.95661 15.4583 0.907591 13.542 0.578613Z" fill="white"/>
<path d="M4.19238 3.42191C4.96895 4.19688 5.83491 4.84642 6.75896 5.38312C7.62965 3.02901 8.90095 1.21875 10.4106 0.244629C8.04082 0.723243 5.90516 1.84606 4.19238 3.42191Z" fill="white"/>
<path d="M15.5898 0.244629C17.0994 1.21864 18.3707 3.02884 19.2414 5.38279C20.1657 4.84609 21.0324 4.19776 21.8091 3.42284C20.0961 1.8465 17.9602 0.723298 15.5898 0.244629Z" fill="white"/>
<path d="M6.59082 13.5425C6.63659 15.5077 6.92981 17.371 7.40958 19.0164C8.9829 18.3036 10.6896 17.8965 12.4579 17.8274V13.5425H6.59082Z" fill="white"/>
<path d="M7.75098 20.0652C8.82351 23.0294 10.5345 25.0912 12.4575 25.4214V18.9248C10.8057 18.9952 9.21526 19.3842 7.75098 20.0652Z" fill="white"/>
<path d="M22.5755 4.18994C21.6768 5.08682 20.6728 5.83912 19.5938 6.44174C20.1291 8.2279 20.4478 10.2688 20.4933 12.4577H25.9996C25.869 9.27287 24.5949 6.38375 22.5755 4.18994Z" fill="white"/>
<path d="M3.42445 4.18945C1.40481 6.38348 0.130711 9.27261 0 12.4577H5.5062C5.55175 10.269 5.87039 8.22807 6.40572 6.44213C5.32675 5.8394 4.32331 5.0865 3.42445 4.18945Z" fill="white"/>
<path d="M7.41882 6.95312C6.93372 8.60621 6.63692 10.4804 6.59082 12.458H12.4579V8.13805C10.6931 8.06912 8.98967 7.6634 7.41882 6.95312Z" fill="white"/>
<path d="M7.7627 5.90509C9.22401 6.58285 10.8106 6.96998 12.4582 7.04028V0.578613C10.5418 0.907646 8.83595 2.95677 7.7627 5.90509Z" fill="white"/>
<path d="M5.5062 13.5425H0C0.130326 16.7186 1.39728 19.6008 3.40718 21.7925C4.30774 20.8904 5.3141 20.134 6.39637 19.5283C5.86648 17.7495 5.55148 15.719 5.5062 13.5425Z" fill="white"/>
<path d="M20.4938 13.5425C20.4485 15.7191 20.1335 17.7497 19.6035 19.5287C20.6828 20.1326 21.6871 20.8861 22.5856 21.7846L22.5938 21.7912C24.6023 19.5997 25.8698 16.7179 26.0002 13.5425H20.4938Z" fill="white"/>
<path d="M21.8191 22.5514C21.0428 21.7752 20.1758 21.1262 19.2516 20.5884C18.3807 22.9562 17.1056 24.7775 15.5898 25.7555C17.9688 25.2751 20.1122 24.1459 21.8278 22.5605L21.8191 22.5514Z" fill="white"/>
<path d="M18.581 6.95264C17.0099 7.66302 15.3063 8.0688 13.542 8.13773V12.4576H19.4089C19.3628 10.48 19.0661 8.60583 18.581 6.95264Z" fill="white"/>
<path d="M6.74807 20.5879C5.8206 21.1277 4.95123 21.78 4.17285 22.5601C5.88887 24.1453 8.03125 25.275 10.41 25.7553C8.89424 24.7774 7.61909 22.9559 6.74807 20.5879Z" fill="white"/>
<path d="M13.542 18.9248V25.4215C15.4648 25.0913 17.1758 23.0297 18.2483 20.0654C16.7839 19.3845 15.1934 18.9953 13.542 18.9248Z" fill="white"/>
<path d="M13.542 13.5425V17.8274C15.3097 17.8965 17.0167 18.3037 18.5902 19.0166C19.07 17.371 19.3631 15.5078 19.4089 13.5425H13.542Z" fill="white"/>
</g>
<defs>
<clipPath id="clip0_76_440">
<rect width="26" height="26" fill="white"/>
</clipPath>
</defs>
</svg>
